# xmcd
# 
# Track frame offsets:
#     150
#     18462
#     39972
# 
# Disc length: 815
# 
# Revision: 4
# Processed by: cddbd v1.5.2PL0 Copyright (c) Steve Scherf et al.
# Submitted via: fre:ac v1.0.17
# 
DISCID=18032d03
DTITLE=嵐 - 誰も知らない
DYEAR=2014
DGENRE=JPOP
TTITLE0=誰も知らない
TTITLE1=おかえり
TTITLE2=おかえり(オリジナル・カラオケ)
EXTD=
EXTT0=
EXTT1=
EXTT2=
PLAYORDER=
